<?xml version="1.0" encoding="UTF-8"?>
<svg version="1.1" xmlns="http://www.w3.org/2000/svg" width="160" height="156">
<path d="M0 0 C4.27261738 3.29052286 6.93787622 7.14079302 8.6484375 12.26953125 C8.89453316 14.85255909 8.89453316 14.85255909 8.88894653 17.6542511 C8.89307053 19.2548362 8.89307053 19.2548362 8.89727783 20.88775635 C8.886492 22.62808136 8.886492 22.62808136 8.87548828 24.40356445 C8.87578033 25.63324448 8.87607239 26.8629245 8.87637329 28.12986755 C8.87522027 31.49319737 8.86520306 34.85628043 8.85122538 38.21956658 C8.83870662 41.73761277 8.83754662 45.25566239 8.83517456 48.77372742 C8.82896315 55.43179435 8.81255694 62.08979546 8.79247558 68.74783343 C8.77010601 76.32941617 8.75912049 83.91100208 8.74908471 91.49260962 C8.72819039 107.08496142 8.69151841 122.67722257 8.6484375 138.26953125 C-7.8515625 138.26953125 -24.3515625 138.26953125 -41.3515625 138.26953125 C-41.6815625 109.55953125 -42.0115625 80.84953125 -42.3515625 51.26953125 C-48.83984418 60.16200594 -48.83984418 60.16200594 -54.96484375 69.25 C-55.7449869 70.44495916 -56.52559779 71.63961306 -57.30664062 72.83398438 C-58.50069248 74.66565843 -59.6912594 76.49930523 -60.87426758 78.33813477 C-62.04099446 80.14834495 -63.22042971 81.94968173 -64.40234375 83.75 C-65.43355347 85.34171021 -65.43355347 85.34171021 -66.4855957 86.96557617 C-67.10136475 87.72588135 -67.71713379 88.48618652 -68.3515625 89.26953125 C-71.3515625 89.26953125 -71.3515625 89.26953125 -72.96142578 87.92431641 C-73.52587402 87.30862793 -74.09032227 86.69293945 -74.671875 86.05859375 C-75.28933594 85.39085938 -75.90679687 84.723125 -76.54296875 84.03515625 C-77.18105469 83.32875 -77.81914063 82.62234375 -78.4765625 81.89453125 C-79.44529297 80.84652344 -79.44529297 80.84652344 -80.43359375 79.77734375 C-85.19054219 74.59157186 -85.19054219 74.59157186 -86.3515625 72.26953125 C-86.6815625 94.04953125 -87.0115625 115.82953125 -87.3515625 138.26953125 C-103.1915625 138.26953125 -119.0315625 138.26953125 -135.3515625 138.26953125 C-135.3515625 98.00953125 -135.3515625 57.74953125 -135.3515625 16.26953125 C-119.1815625 16.26953125 -103.0115625 16.26953125 -86.3515625 16.26953125 C-80.93550591 22.88915598 -75.55731409 29.49033705 -70.3515625 36.26953125 C-67.0260301 33.04249023 -64.0677848 29.73888961 -61.2265625 26.08203125 C-48.49955784 10.46157248 -21.58084937 -12.88476872 0 0 Z " fill="#FE0000" transform="translate(144.3515625,8.73046875)"/>
<path d="M0 0 C3.48886775 2.41536998 4.6489221 5.05975992 6 9 C6.24609566 11.47370625 6.24609566 11.47370625 6.24050903 14.11897278 C6.24325836 15.12713043 6.24600769 16.13528809 6.24884033 17.17399597 C6.24164978 18.26875748 6.23445923 19.36351898 6.22705078 20.49145508 C6.22734283 21.65286011 6.22763489 22.81426514 6.22793579 24.01086426 C6.2265432 27.84716276 6.21098498 31.6832667 6.1953125 35.51953125 C6.19158212 38.18039784 6.18863687 40.84125367 6.18673706 43.50212097 C6.18052675 49.78832213 6.16412204 56.07445354 6.14403808 62.36062402 C6.12166509 69.5189978 6.11068213 76.67737496 6.10064721 83.83577502 C6.07975539 98.55722387 6.04308477 113.27859786 6 128 C-10.5 128 -27 128 -44 128 C-44.36097928 105.77080656 -44.36097928 105.77080656 -44.43945312 96.23828125 C-44.49309537 89.75306277 -44.55629884 83.26899628 -44.67895508 76.78466797 C-44.77730666 71.55201422 -44.83067443 66.3205968 -44.85389519 61.08708954 C-44.87042561 59.09839175 -44.90270635 57.10975576 -44.95157051 55.12158966 C-45.21907036 43.77848127 -45.04078917 35.92246954 -37.2346344 27.25209045 C-36.49720505 26.5089006 -35.7597757 25.76571075 -35 25 C-33.97436312 23.75376622 -32.95928966 22.49866534 -31.9609375 21.23046875 C-11.78564216 -2.51055099 -11.78564216 -2.51055099 0 0 Z " fill="#29B0F3" transform="translate(147,19)"/>
<path d="M0 0 C1.65 1.65 3.3 3.3 5 5 C5.58523437 5.57363281 6.17046875 6.14726563 6.7734375 6.73828125 C10.35271804 10.25645213 13.70801138 13.89893212 16.984375 17.69921875 C19.44480269 20.5077302 21.96974992 23.25461879 24.5 26 C28.06685878 29.87329201 31.61806872 33.75161006 34.99833679 37.7901001 C37.03924745 40.11801479 37.03924745 40.11801479 39.71028137 42.44378662 C45.39559517 47.69943776 48.68211309 51.65754457 49.2487793 59.69628906 C49.28613361 62.5593114 49.18873456 65.40524575 49.07421875 68.265625 C49.05364913 69.79541369 49.03801623 71.32527588 49.02705383 72.85516357 C48.98546158 76.84213693 48.87780652 80.82455521 48.75531006 84.80975342 C48.62185571 89.61230831 48.57229343 94.41640481 48.50832367 99.22029114 C48.40238342 106.48334178 48.19145161 113.73644199 48 121 C32.16 121 16.32 121 0 121 C0 81.07 0 41.14 0 0 Z " fill="#29B8F3" transform="translate(9,26)"/>
<path d="M0 0 C3.39302462 2.34901705 4.93588123 5.03373913 6 9 C5.47900656 14.12310214 3.10900752 18.71212063 1.0625 23.375 C0.46405273 24.75570679 0.46405273 24.75570679 -0.14648438 26.16430664 C-1.42550129 29.11196323 -2.71166382 32.05640563 -4 35 C-5.66806618 38.81189046 -7.33526542 42.62415319 -9 46.4375 C-9.41096924 47.37843506 -9.82193848 48.31937012 -10.24536133 49.28881836 C-14.66642244 59.45630666 -18.85221931 69.71854071 -23 80 C-23.66 80 -24.32 80 -25 80 C-26.47309111 77.89980986 -27.81309635 75.82232271 -29.125 73.625 C-29.49753906 73.02171875 -29.87007812 72.4184375 -30.25390625 71.796875 C-33 67.27034684 -33 67.27034684 -33 65 C-33.66 65 -34.32 65 -35 65 C-35 64.01 -35 63.02 -35 62 C-35.66 62 -36.32 62 -37 62 C-38.46484375 59.31445312 -38.46484375 59.31445312 -39.9296875 56.62890625 C-40.91410024 54.83381685 -40.91410024 54.83381685 -43 54 C-43 57.3 -43 60.6 -43 64 C-43.33 64 -43.66 64 -44 64 C-45.66771019 37.28242754 -45.66771019 37.28242754 -40.1875 30.125 C-38.4982305 28.37720462 -36.7665321 26.66966598 -35 25 C-33.5604203 23.33335726 -32.17468097 21.62989779 -30.78759766 19.91943359 C-12.38853281 -2.6389774 -12.38853281 -2.6389774 0 0 Z " fill="#3383E8" transform="translate(147,19)"/>
<path d="M0 0 C0 17.82 0 35.64 0 54 C-15.84 54 -31.68 54 -48 54 C-48 52 -48 52 -45.84765625 49.75 C-44.43806641 48.38875 -44.43806641 48.38875 -43 47 C-41.11938071 45.02418476 -39.27881373 43.01242055 -37.4375 41 C-36.96892578 40.49210937 -36.50035156 39.98421875 -36.01757812 39.4609375 C-33.83446982 37.0793648 -31.75774673 34.68554073 -29.78515625 32.125 C-29.19605469 31.42375 -28.60695313 30.7225 -28 30 C-27.34 30 -26.68 30 -26 30 C-25.835 29.319375 -25.67 28.63875 -25.5 27.9375 C-23.59185581 24.20071762 -21.02198622 22.24180454 -17.77734375 19.6484375 C-15.74133393 18.02488392 -15.74133393 18.02488392 -15 15 C-13.66015625 13.17578125 -13.66015625 13.17578125 -12.0625 11.3125 C-11.53785156 10.68988281 -11.01320312 10.06726563 -10.47265625 9.42578125 C-9 8 -9 8 -7 8 C-6.7525 7.4225 -6.505 6.845 -6.25 6.25 C-2.77777778 0 -2.77777778 0 0 0 Z " fill="#28C2F4" transform="translate(57,93)"/>
<path d="M0 0 C2.5625 1.875 2.5625 1.875 4 4 C4 4.66 4 5.32 4 6 C3.07380859 5.87818359 3.07380859 5.87818359 2.12890625 5.75390625 C-3.04181357 5.36826657 -6.35955685 5.7042284 -10.5625 8.875 C-12.07775806 10.21012248 -13.55669479 11.58740342 -15 13 C-16.05960938 14.03640625 -16.05960938 14.03640625 -17.140625 15.09375 C-26.37145833 24.78944544 -33.80633865 36.38511252 -41.01171875 47.62890625 C-41.33785156 48.08136719 -41.66398437 48.53382812 -42 49 C-42.33 49 -42.66 49 -43 49 C-44.30562166 43.62503201 -45.04984525 39.03886823 -42.44921875 33.98828125 C-40.52030637 31.4221083 -38.52634085 28.96520836 -36.38964844 26.56933594 C-34.95057187 24.9441806 -33.569952 23.28146545 -32.1953125 21.6015625 C-12.24268236 -2.66981875 -12.24268236 -2.66981875 0 0 Z " fill="#2C0295" transform="translate(147,19)"/>
<path d="M0 0 C5.9728798 4.82913686 10.93715454 10.23824322 16 16 C17.49770803 17.66872659 18.99768784 19.33541719 20.5 21 C22.73914503 23.48750773 24.97787549 25.97537819 27.21484375 28.46484375 C27.94832031 29.28082031 28.68179688 30.09679687 29.4375 30.9375 C30.53191406 32.18080078 30.53191406 32.18080078 31.6484375 33.44921875 C34.00505602 36.07292739 34.00505602 36.07292739 36.7890625 38.58203125 C43.70921266 45.23902077 43.70921266 45.23902077 44.62890625 50.80859375 C44.62542606 54.26442469 44.44991533 57.57564445 44 61 C39.73225302 56.99898721 36.38257747 52.63673553 33 47.875 C32.15514038 46.69671631 32.15514038 46.69671631 31.29321289 45.49462891 C26.7051971 39.06592743 22.2584537 32.54462025 17.83300781 26.00341797 C13.64438065 19.84810145 9.24621365 13.87623689 4.69311523 7.98583984 C2.66047773 5.33614546 1.06447511 3.19342533 0 0 Z " fill="#2B0697" transform="translate(13,31)"/>
<path d="M0 0 C1.14926266 0.95421808 2.29430541 1.91352045 3.4375 2.875 C4.07558594 3.40867188 4.71367187 3.94234375 5.37109375 4.4921875 C7 6 7 6 8 8 C4.82461668 7.65978036 3.97723135 6.97533396 1.75 4.5625 C0 2 0 2 0 0 Z " fill="#3C1197" transform="translate(13,31)"/>
</svg>
